<svg xmlns="http://www.w3.org/2000/svg" viewBox="0 0 24 24"><path d="M20.0306 15.5302C19.961 15.6 19.8782 15.6553 19.7872 15.693C19.6961 15.7308 19.5986 15.7502 19.5 15.7502C19.4014 15.7502 19.3038 15.7308 19.2128 15.693C19.1217 15.6553 19.039 15.6 18.9694 15.5302L12 8.55993L5.03061 15.5302C4.88988 15.671 4.69901 15.75 4.49999 15.75C4.30097 15.75 4.1101 15.671 3.96936 15.5302C3.82863 15.3895 3.74957 15.1986 3.74957 14.9996C3.74957 14.8006 3.82863 14.6097 3.96936 14.469L11.4694 6.96899C11.539 6.89926 11.6217 6.84394 11.7128 6.80619C11.8038 6.76845 11.9014 6.74902 12 6.74902C12.0986 6.74902 12.1961 6.76845 12.2872 6.80619C12.3782 6.84394 12.461 6.89926 12.5306 6.96899L20.0306 14.469C20.1003 14.5386 20.1557 14.6214 20.1934 14.7124C20.2312 14.8035 20.2506 14.9011 20.2506 14.9996C20.2506 15.0982 20.2312 15.1958 20.1934 15.2868C20.1557 15.3779 20.1003 15.4606 20.0306 15.5302Z" fill="currentColor"/></svg>
